<svg width="137" height="137" viewBox="0 0 137 137" fill="none" xmlns="http://www.w3.org/2000/svg">
<rect width="136.706" height="136.706" rx="35" fill="#C2B3EC"/>
<path fill-rule="evenodd" clip-rule="evenodd" d="M66.4667 98.8466V37.8591L106.706 28.7424V107.963L66.4667 98.8466ZM102.933 33.4642L70.2391 40.8739V95.8318L102.933 103.241V33.4642ZM30 107.963V37.5447H30.3144C42.1821 37.5447 53.0058 46.3886 55.274 56.206C55.771 58.3804 56.3302 64.0658 56.3302 64.0658L62.4504 78.9779C62.5745 79.2262 62.6057 79.506 62.6057 79.7855C62.6057 80.9348 61.6736 81.8669 60.4931 81.8669H56.0816V88.0493C56.0816 93.7658 51.7181 98.5322 46.0328 98.5322H42.2604V107.963H30ZM49.4022 61.9841C47.8489 61.9841 46.6062 63.2268 46.6062 64.78C46.6062 66.3333 47.8489 67.576 49.4022 67.576C50.9555 67.576 52.1982 66.3333 52.1982 64.78C52.1982 63.2268 50.9555 61.9841 49.4022 61.9841ZM85.0868 55.8759C93.188 55.2273 100.188 61.1195 100.218 68.7194C100.308 76.4906 93.0352 82.1533 85.1377 81.6179C77.7456 81.1388 72.2627 75.2441 72.241 68.7669C72.1757 62.1516 77.6758 56.4691 85.0868 55.8759ZM79.8676 68.0385C81.1672 67.964 82.1304 67.0699 82.0814 65.8231C82.0324 64.577 81.0823 63.693 79.7721 63.7775C78.4938 63.8831 77.5708 64.7756 77.6174 65.9894C77.6872 67.2035 78.5878 68.0891 79.8676 68.0385ZM78.7648 76.3045C78.1006 76.0018 78.9314 73.5755 79.5696 73.2318C80.1647 72.9114 80.63 72.6544 81.0027 72.4485C81.0463 72.4244 81.0886 72.4011 81.1297 72.3784C81.9938 71.9014 82.3254 71.7243 82.6768 71.665C82.8849 71.6299 83.0998 71.636 83.4363 71.6456C83.4491 71.646 83.462 71.6463 83.4751 71.6467C83.8341 71.6569 84.3286 71.6692 85.0868 71.6415C88.5291 71.4802 92.0437 74.6905 92.0437 74.6905C92.0437 74.6905 92.5219 75.5651 91.8425 75.8474C91.1739 76.1032 90.2139 75.5306 89.3537 75.0175C89.3112 74.9922 89.269 74.967 89.227 74.942C88.7102 74.6347 88.3951 74.3934 88.1492 74.205C87.5096 73.7151 87.3383 73.5839 85.3037 73.5839C84.6505 73.5839 84.2482 73.5526 83.9661 73.5306C83.9517 73.5294 83.9377 73.5283 83.9239 73.5273C83.703 73.5101 83.558 73.5007 83.4173 73.5211C83.1626 73.5581 82.922 73.6931 82.2718 74.0581C82.2476 74.0717 82.2228 74.0857 82.1973 74.0999C81.9207 74.2551 81.574 74.4491 81.1289 74.6905C80.8937 74.8181 80.5865 75.1013 80.2655 75.3973C79.7043 75.9147 79.1007 76.4713 78.7648 76.3045ZM90.4229 67.9941C91.6992 67.9643 92.9796 66.9636 92.9243 65.6376C92.8966 64.4839 91.7812 63.3748 90.315 63.4669C88.8727 63.5814 87.8321 64.5308 87.8846 65.8193C87.9632 67.1086 88.9786 68.0482 90.4229 67.9941Z" fill="url(#paint0_linear_116_273)"/>
<defs>
<linearGradient id="paint0_linear_116_273" x1="30" y1="68.3528" x2="106.706" y2="68.3528" gradientUnits="userSpaceOnUse">
<stop stop-color="#4F46E5"/>
<stop offset="1" stop-color="#9333EA"/>
</linearGradient>
</defs>
</svg>
