<svg width="17" height="13" viewBox="0 0 17 13" fill="none" xmlns="http://www.w3.org/2000/svg">
<path d="M16.7143 0.928571C16.7143 1.17484 16.6165 1.41103 16.4423 1.58517C16.2682 1.75931 16.032 1.85714 15.7857 1.85714H0.928571C0.682299 1.85714 0.446113 1.75931 0.271972 1.58517C0.0978313 1.41103 0 1.17484 0 0.928571C0 0.682299 0.0978313 0.446113 0.271972 0.271972C0.446113 0.0978315 0.682299 0 0.928571 0H15.7857C16.032 0 16.2682 0.0978315 16.4423 0.271972C16.6165 0.446113 16.7143 0.682299 16.7143 0.928571Z" fill="#FBFBF8"/>
<path d="M16.7143 6.5C16.7143 6.74627 16.6165 6.98246 16.4423 7.1566C16.2682 7.33074 16.032 7.42857 15.7857 7.42857H0.928571C0.682299 7.42857 0.446113 7.33074 0.271972 7.1566C0.0978313 6.98246 0 6.74627 0 6.5C0 6.25373 0.0978313 6.01754 0.271972 5.8434C0.446113 5.66926 0.682299 5.57143 0.928571 5.57143H15.7857C16.032 5.57143 16.2682 5.66926 16.4423 5.8434C16.6165 6.01754 16.7143 6.25373 16.7143 6.5Z" fill="#FBFBF8"/>
<path d="M16.7143 12.0714C16.7143 12.3177 16.6165 12.5539 16.4423 12.728C16.2682 12.9022 16.032 13 15.7857 13H0.928571C0.682299 13 0.446113 12.9022 0.271972 12.728C0.0978313 12.5539 0 12.3177 0 12.0714C0 11.8252 0.0978313 11.589 0.271972 11.4148C0.446113 11.2407 0.682299 11.1429 0.928571 11.1429H15.7857C16.032 11.1429 16.2682 11.2407 16.4423 11.4148C16.6165 11.589 16.7143 11.8252 16.7143 12.0714Z" fill="#FBFBF8"/>
</svg>
