<svg width="137" height="137" viewBox="0 0 137 137" fill="none" xmlns="http://www.w3.org/2000/svg">
<rect width="136.706" height="136.706" rx="35" fill="#C2B3EC"/>
<path d="M45.8525 96.2412H35.7102V106.383H45.8525V96.2412Z" fill="url(#paint0_linear_116_278)"/>
<path d="M64.8688 92.4407H54.7266V106.386H64.8688V92.4407Z" fill="url(#paint1_linear_116_278)"/>
<path d="M83.8862 87.3699H73.7439V106.387H83.8862V87.3699Z" fill="url(#paint2_linear_116_278)"/>
<path d="M102.903 75.9595H92.7603V106.386H102.903V75.9595Z" fill="url(#paint3_linear_116_278)"/>
<path d="M83.2519 50.6038H77.5469V63.2816H83.2519V50.6038Z" fill="url(#paint4_linear_116_278)"/>
<path d="M88.3231 50.6038H84.5198V63.2816H88.3231V50.6038Z" fill="url(#paint5_linear_116_278)"/>
<path d="M95.2958 50.6038H89.5908V63.2816H95.2958V50.6038Z" fill="url(#paint6_linear_116_278)"/>
<path d="M66.1385 50.5407L66.136 50.6422L68.6722 50.6038C68.6712 49.0655 68.8697 47.5337 69.2628 46.0465L66.8114 45.3965C66.3663 47.075 66.1401 48.8041 66.1385 50.5407Z" fill="url(#paint7_linear_116_278)"/>
<path d="M86.4406 70.8885L86.4214 68.353C84.8772 68.354 83.3393 68.1541 81.8467 67.7581L81.1943 70.2082C82.8998 70.6607 84.6569 70.8894 86.4214 70.8885H86.4406Z" fill="url(#paint8_linear_116_278)"/>
<path d="M81.1156 31.0205C79.4045 31.4831 77.7619 32.1694 76.2302 33.0615L77.5054 35.2529C78.8446 34.4728 80.2808 33.8728 81.7768 33.4682L81.1156 31.0205Z" fill="url(#paint9_linear_116_278)"/>
<path d="M103.571 55.1965L106.021 55.8502C106.476 54.1387 106.707 52.375 106.706 50.6039V50.5271L104.17 50.6039C104.171 52.1543 103.97 53.6983 103.571 55.1965Z" fill="url(#paint10_linear_116_278)"/>
<path d="M103.953 40.3945L101.763 41.6722C102.544 43.0107 103.145 44.4462 103.552 45.9417L105.998 45.2769C105.534 43.5666 104.846 41.9251 103.953 40.3945Z" fill="url(#paint11_linear_116_278)"/>
<path d="M100.714 36.2107C99.4575 34.962 98.0428 33.883 96.5062 33.001L95.2446 35.1998C96.5895 35.9721 97.8277 36.9166 98.9279 38.0096L100.714 36.2107Z" fill="url(#paint12_linear_116_278)"/>
<path d="M66.8333 55.8913C67.2943 57.6028 67.9789 59.246 68.8693 60.7786L71.0619 59.5047C70.2833 58.1652 69.6848 56.7288 69.2822 55.2327L66.8333 55.8913Z" fill="url(#paint13_linear_116_278)"/>
<path d="M91.6089 30.9891C89.9157 30.5435 88.1721 30.3183 86.4213 30.3193H86.3638L86.4213 32.8549C87.9536 32.8538 89.4795 33.0506 90.9613 33.4405L91.6089 30.9891Z" fill="url(#paint14_linear_116_278)"/>
<path d="M101.799 59.4734C101.022 60.8159 100.074 62.0512 98.9771 63.148L100.771 64.9407C102.023 63.6874 103.107 62.276 103.994 60.7424L101.799 59.4734Z" fill="url(#paint15_linear_116_278)"/>
<path d="M96.5777 68.1665L95.3062 65.9727C93.9656 66.7499 92.5284 67.347 91.0317 67.7487L91.6891 70.1976C93.4007 69.7379 95.0443 69.055 96.5777 68.1665Z" fill="url(#paint16_linear_116_278)"/>
<path d="M71.026 41.7656C71.7998 40.4215 72.7458 39.1843 73.8401 38.0854L72.0424 36.2964C70.7929 37.552 69.7124 38.9652 68.8284 40.5002L71.026 41.7656Z" fill="url(#paint17_linear_116_278)"/>
<path d="M72.0994 64.9681C73.3535 66.2192 74.7657 67.3012 76.3001 68.1864L77.5667 65.9901C76.2237 65.2148 74.9876 64.2678 73.8896 63.1729L72.0994 64.9681Z" fill="url(#paint18_linear_116_278)"/>
<path d="M46.1952 79.763H58.5301C58.8045 79.7629 59.0714 79.6739 59.2909 79.5092L66.9016 73.8013L66.1541 78.2867L68.655 78.7039L69.9228 71.0972C69.9781 70.7656 69.8994 70.4256 69.704 70.1519C69.5087 69.8783 69.2126 69.6935 68.881 69.6381L61.2743 68.3704L60.8571 70.8713L65.5418 71.6519L58.1073 77.2275H45.8523C45.6278 77.2273 45.4073 77.287 45.2134 77.4002L30 86.2747L31.2777 88.4648L46.1952 79.763Z" fill="url(#paint19_linear_116_278)"/>
<path d="M88.3235 42.9976L90.3093 40.2497C90.4904 39.9475 90.7816 39.7273 91.1217 39.6352C91.4617 39.5431 91.8242 39.5863 92.1331 39.7559C92.4419 39.9254 92.6731 40.208 92.778 40.5443C92.8829 40.8807 92.8534 41.2446 92.6957 41.5596L91.4929 42.9976H89.5912V49.3366H97.8318V42.9976H94.812L94.9639 42.6937C95.4146 41.7922 95.4986 40.7513 95.1983 39.7892C94.898 38.8271 94.2367 38.0188 93.3533 37.5338C92.4698 37.0488 91.4328 36.9248 90.46 37.1879C89.4871 37.451 88.6539 38.0807 88.1353 38.9448L86.462 41.734L84.7888 38.9448C84.2701 38.0809 83.4369 37.4513 82.4641 37.1884C81.4913 36.9254 80.4545 37.0494 79.5711 37.5343C78.6877 38.0193 78.0265 38.8275 77.7262 39.7895C77.4258 40.7514 77.5097 41.7923 77.9602 42.6937L78.1121 42.9976H75.0117V49.3366H83.2523V42.9976H81.3506L80.2283 41.5596C80.0707 41.2446 80.0413 40.8807 80.1462 40.5445C80.2512 40.2082 80.4823 39.9256 80.7911 39.7561C81.0999 39.5866 81.4624 39.5434 81.8024 39.6354C82.1424 39.7274 82.4336 39.9476 82.6147 40.2497L84.5201 42.9976V49.3366H88.3235V42.9976Z" fill="url(#paint20_linear_116_278)"/>
<defs>
<linearGradient id="paint0_linear_116_278" x1="35.7102" y1="101.312" x2="45.8525" y2="101.312" gradientUnits="userSpaceOnUse">
<stop stop-color="#4F46E5"/>
<stop offset="1" stop-color="#9333EA"/>
</linearGradient>
<linearGradient id="paint1_linear_116_278" x1="54.7266" y1="99.4135" x2="64.8688" y2="99.4135" gradientUnits="userSpaceOnUse">
<stop stop-color="#4F46E5"/>
<stop offset="1" stop-color="#9333EA"/>
</linearGradient>
<linearGradient id="paint2_linear_116_278" x1="73.7439" y1="96.8783" x2="83.8862" y2="96.8783" gradientUnits="userSpaceOnUse">
<stop stop-color="#4F46E5"/>
<stop offset="1" stop-color="#9333EA"/>
</linearGradient>
<linearGradient id="paint3_linear_116_278" x1="92.7603" y1="91.1729" x2="102.903" y2="91.1729" gradientUnits="userSpaceOnUse">
<stop stop-color="#4F46E5"/>
<stop offset="1" stop-color="#9333EA"/>
</linearGradient>
<linearGradient id="paint4_linear_116_278" x1="77.5469" y1="56.9427" x2="83.2519" y2="56.9427" gradientUnits="userSpaceOnUse">
<stop stop-color="#4F46E5"/>
<stop offset="1" stop-color="#9333EA"/>
</linearGradient>
<linearGradient id="paint5_linear_116_278" x1="84.5198" y1="56.9427" x2="88.3231" y2="56.9427" gradientUnits="userSpaceOnUse">
<stop stop-color="#4F46E5"/>
<stop offset="1" stop-color="#9333EA"/>
</linearGradient>
<linearGradient id="paint6_linear_116_278" x1="89.5908" y1="56.9427" x2="95.2958" y2="56.9427" gradientUnits="userSpaceOnUse">
<stop stop-color="#4F46E5"/>
<stop offset="1" stop-color="#9333EA"/>
</linearGradient>
<linearGradient id="paint7_linear_116_278" x1="66.136" y1="48.0193" x2="69.2628" y2="48.0193" gradientUnits="userSpaceOnUse">
<stop stop-color="#4F46E5"/>
<stop offset="1" stop-color="#9333EA"/>
</linearGradient>
<linearGradient id="paint8_linear_116_278" x1="81.1943" y1="69.3233" x2="86.4406" y2="69.3233" gradientUnits="userSpaceOnUse">
<stop stop-color="#4F46E5"/>
<stop offset="1" stop-color="#9333EA"/>
</linearGradient>
<linearGradient id="paint9_linear_116_278" x1="76.2302" y1="33.1367" x2="81.7768" y2="33.1367" gradientUnits="userSpaceOnUse">
<stop stop-color="#4F46E5"/>
<stop offset="1" stop-color="#9333EA"/>
</linearGradient>
<linearGradient id="paint10_linear_116_278" x1="103.571" y1="53.1886" x2="106.706" y2="53.1886" gradientUnits="userSpaceOnUse">
<stop stop-color="#4F46E5"/>
<stop offset="1" stop-color="#9333EA"/>
</linearGradient>
<linearGradient id="paint11_linear_116_278" x1="101.763" y1="43.1681" x2="105.998" y2="43.1681" gradientUnits="userSpaceOnUse">
<stop stop-color="#4F46E5"/>
<stop offset="1" stop-color="#9333EA"/>
</linearGradient>
<linearGradient id="paint12_linear_116_278" x1="95.2446" y1="35.5053" x2="100.714" y2="35.5053" gradientUnits="userSpaceOnUse">
<stop stop-color="#4F46E5"/>
<stop offset="1" stop-color="#9333EA"/>
</linearGradient>
<linearGradient id="paint13_linear_116_278" x1="66.8333" y1="58.0056" x2="71.0619" y2="58.0056" gradientUnits="userSpaceOnUse">
<stop stop-color="#4F46E5"/>
<stop offset="1" stop-color="#9333EA"/>
</linearGradient>
<linearGradient id="paint14_linear_116_278" x1="86.3638" y1="31.8799" x2="91.6089" y2="31.8799" gradientUnits="userSpaceOnUse">
<stop stop-color="#4F46E5"/>
<stop offset="1" stop-color="#9333EA"/>
</linearGradient>
<linearGradient id="paint15_linear_116_278" x1="98.9771" y1="62.207" x2="103.994" y2="62.207" gradientUnits="userSpaceOnUse">
<stop stop-color="#4F46E5"/>
<stop offset="1" stop-color="#9333EA"/>
</linearGradient>
<linearGradient id="paint16_linear_116_278" x1="91.0317" y1="68.0851" x2="96.5777" y2="68.0851" gradientUnits="userSpaceOnUse">
<stop stop-color="#4F46E5"/>
<stop offset="1" stop-color="#9333EA"/>
</linearGradient>
<linearGradient id="paint17_linear_116_278" x1="68.8284" y1="39.031" x2="73.8401" y2="39.031" gradientUnits="userSpaceOnUse">
<stop stop-color="#4F46E5"/>
<stop offset="1" stop-color="#9333EA"/>
</linearGradient>
<linearGradient id="paint18_linear_116_278" x1="72.0994" y1="65.6796" x2="77.5667" y2="65.6796" gradientUnits="userSpaceOnUse">
<stop stop-color="#4F46E5"/>
<stop offset="1" stop-color="#9333EA"/>
</linearGradient>
<linearGradient id="paint19_linear_116_278" x1="30" y1="78.4176" x2="69.9401" y2="78.4176" gradientUnits="userSpaceOnUse">
<stop stop-color="#4F46E5"/>
<stop offset="1" stop-color="#9333EA"/>
</linearGradient>
<linearGradient id="paint20_linear_116_278" x1="75.0117" y1="43.1946" x2="97.8318" y2="43.1946" gradientUnits="userSpaceOnUse">
<stop stop-color="#4F46E5"/>
<stop offset="1" stop-color="#9333EA"/>
</linearGradient>
</defs>
</svg>
